<svg id="Layer_3" enable-background="new 0 0 64 64" height="512" viewBox="0 0 64 64" width="512" xmlns="http://www.w3.org/2000/svg"><g><circle cx="55" cy="23" r="2"/><path d="m46 18.382-.292-.146c-4.235-2.117-8.975-3.236-13.708-3.236s-9.473 1.119-13.708 3.236l-.292.147v-3.764l1.187-.593c3.958-1.98 8.389-3.026 12.813-3.026s8.855 1.046 12.814 3.025l1.186.593zm-32 9.618c0-1.302.839-2.402 2-2.816v5.631c-1.161-.413-2-1.513-2-2.815zm8.5 19 8.7 11.6c.188.252.485.4.8.4s.611-.148.8-.4l8.7-11.6h2.599l-9.625 14h-4.948l-9.625-14zm-13.5 5c0-2.757 2.243-5 5-5h3.474l9.625 14h-18.099zm46 0v9h-18.099l9.625-14h3.474c2.757 0 5 2.243 5 5zm-16-5-7 9.333-7-9.333zm7-16c0 7.72-6.28 14-14 14s-14-6.28-14-14v-10.382l1.187-.593c3.958-1.979 8.389-3.025 12.813-3.025s8.855 1.046 12.814 3.025l1.186.593zm4-3c0 1.302-.839 2.402-2 2.816v-5.631c1.161.413 2 1.513 2 2.815zm-2-13.477v-.523c0-.379-.214-.726-.553-.895l-1.739-.869c-4.235-2.117-8.975-3.236-13.708-3.236s-9.473 1.119-13.708 3.236l-1.739.869c-.339.169-.553.516-.553.895v.523l-6.308-2.523 22.308-8.923 22.308 8.923z"/><path d="m54 14.277v5.723h2v-6.523z"/></g></svg>