<svg height="512pt" viewBox="0 0 512 512" width="512pt" xmlns="http://www.w3.org/2000/svg"><path d="m207.800781 321.328125c-8.28125 0-15 6.722656-15 15v51.402344h126.398438v-51.402344c0-8.277344-6.71875-15-15-15zm0 0"/><path d="m158.53125 387.730469v-51.402344c0-8.277344-6.710938-15-15-15h-96.402344c-8.277344 0-15 6.722656-15 15v52.871094c4.851563-.96875 9.871094-1.46875 15-1.46875zm0 0"/><path d="m359.636719 292.210938c-23.148438-32.277344-60.976563-53.34375-103.636719-53.34375s-80.488281 21.066406-103.636719 53.34375c9.027344 1.804687 17.09375 6.320312 23.300781 12.660156 8.175782-8.347656 19.558594-13.542969 32.136719-13.542969h96.398438c12.578125 0 23.960937 5.195313 32.136719 13.542969 6.207031-6.339844 14.273437-10.855469 23.300781-12.660156zm0 0"/><path d="m353.46875 336.328125v51.402344h111.402344c5.128906 0 10.148437.5 15 1.46875v-52.871094c0-8.277344-6.722656-15-15-15h-96.402344c-8.289062 0-15 6.722656-15 15zm0 0"/><path d="m159.601562 127.46875h192.796876c8.285156 0 15-6.71875 15-15 0-8.285156-6.714844-15-15-15h-2.085938c-6.035156-41.078125-38.367188-73.714844-79.3125-80.214844v-2.253906c0-8.285156-6.714844-15-15-15s-15 6.714844-15 15v2.246094c-40.9375 6.492187-73.277344 39.136718-79.3125 80.222656h-2.085938c-8.285156 0-15 6.714844-15 15 0 8.28125 6.714844 15 15 15zm0 0"/><path d="m464.867188 417.734375h-417.734376c-25.988281 0-47.132812 21.144531-47.132812 47.132813 0 25.988281 21.144531 47.132812 47.132812 47.132812h417.734376c25.988281 0 47.132812-21.144531 47.132812-47.132812 0-25.988282-21.144531-47.132813-47.132812-47.132813zm-417.734376 64.265625c-9.445312 0-17.132812-7.6875-17.132812-17.132812 0-9.445313 7.6875-17.132813 17.132812-17.132813 9.445313 0 17.132813 7.6875 17.132813 17.132813 0 9.445312-7.683594 17.132812-17.132813 17.132812zm208.867188 0c-9.445312 0-17.132812-7.6875-17.132812-17.132812 0-9.445313 7.6875-17.132813 17.132812-17.132813s17.132812 7.6875 17.132812 17.132813c0 9.445312-7.6875 17.132812-17.132812 17.132812zm208.867188 0c-9.445313 0-17.132813-7.6875-17.132813-17.132812 0-9.445313 7.6875-17.132813 17.132813-17.132813 9.445312 0 17.132812 7.683594 17.132812 17.132813 0 9.449218-7.6875 17.132812-17.132812 17.132812zm0 0"/><path d="m335.265625 159.617188v-2.148438h-158.53125v2.148438c0 43.699218 35.550781 79.25 79.28125 79.25 43.699219 0 79.25-35.550782 79.25-79.25zm0 0"/></svg>