<svg height="512" viewBox="0 0 58 58" width="512" xmlns="http://www.w3.org/2000/svg"><g id="Page-1" fill="none" fill-rule="evenodd"><g id="013---Old-Man-In-chair" fill="rgb(0,0,0)" fill-rule="nonzero"><path id="Shape" d="m35.02 12h.97v2c0 1.6568542 1.3431458 3 3 3h3c2.2132917-.0033042 4.0066958-1.7967083 4.01-4.01v-.99c1.6568542 0 3-1.3431458 3-3 0-1.65685425-1.3431458-3-3-3h-.429c-.6611358-1.51320166-2.0267659-2.6023838-3.6491095-2.91041108-1.6223437-.30802727-3.2921461.20483061-4.4618905 1.37041108-.820293.81000902-1.3299645 1.88244289-1.44 3.03-.0312742.33104435-.148476.6481784-.34.92l-1.47 1.96c-.2340445.3072866-.2733877.7207823-.1014934 1.066693.1718943.3459108.525228.5642726.9114934.563307zm11.98-3c0 .55228475-.4477153 1-1 1h-3c-.5522847 0-1-.44771525-1-1s.4477153-1 1-1h3c.5522847 0 1 .44771525 1 1z"/><path id="Shape" d="m45.0000001 30-.0000001-6.5c.0002425-1.1881715-.8358344-2.2123657-2-2.45v-2.14c-.3332973.0601469-.6713192.0902677-1.01.09h-2.99v2c-2.209139 0-4 1.790861-4 4v5h4v-4c0-.5522847.4477153-1 1-1s1 .4477153 1 1v4z"/><path id="Shape" d="m19 41.24-1.86 9.63c-.1103642.4209683.071624.8641054.446 1.086l-.056-.016-.4.875c-.3236595.7147648-1.0353704 1.1742485-1.82 1.175h-.3c-.561814-.0021061-1.098607.2321852-1.4790761.6455648-.380469.4133797-.5695251.9677234-.5209239 1.5274352.1286521 1.0642 1.0422594 1.8580962 2.114 1.837h3.276c.9337706-.0001498 1.7431698-.6464239 1.95-1.557l.8-3.5-.029-.008c.3945685-.0587978.7164449-.3464822.819-.732l1.87-7.44c.034487-.1421736.0993005-.2752119.19-.39v-6.373001l-1.07.000001c-1.9171805-.0013724-3.5657361 1.3577421-3.93 3.24z"/><path id="Shape" d="m56 9h-2.24c-1.0055623-.00042054-1.8562257.74337565-1.99 1.74l-2.51 19.26h2.74c.5522847 0 1 .4477153 1 1s-.4477153 1-1 1h-22c-2.209139 0-4 1.790861-4 4v15c.0032948 1.1032019.8967981 1.9967052 2 2h26.18c1.070356.0010843 1.9518345-.8407277 2-1.91l1.82-40c.0245883-.5458479-.1752198-1.0779898-.5529906-1.47276024-.3777707-.39477047-.9006083-.61779328-1.4470094-.61723976zm-5 29h-20c-.5522847 0-1-.4477153-1-1s.4477153-1 1-1h20c.5522847 0 1 .4477153 1 1s-.4477153 1-1 1z"/><path id="Shape" d="m28 56c0 1.1045695.8954305 2 2 2h4c1.1045695 0 2-.8954305 2-2v-1h-8z"/><path id="Shape" d="m46 56c0 1.1045695.8954305 2 2 2h4c1.1045695 0 2-.8954305 2-2v-1h-8z"/><path id="Shape" d="m14 15v-5h.89c.3566925.0007043.69183-.17066136.9000908-.46024295.2082607-.2895816.2640775-.66182861.1499092-.99975705l-2.59-7.78c-.1524525-.45107837-.5738716-.75610551-1.05-.76h-2.24l1.89 5.68c.1717081.52431884-.1086486 1.08948236-.63 1.27-.104042.03049581-.2116143.04730399-.32.05-.4299159.00110976-.8124279-.27268828-.95-.68l-2-6c-.03198687-.10370294-.0488274-.21148233-.05-.32-.0011726.10851767-.01801313.21629706-.05.32l-2 6c-.13757212.40731172-.52008409.68110976-.95.68-.1083857-.00269601-.21595802-.01950419-.32-.05-.52135143-.18051764-.80170813-.74568116-.63-1.27l1.89-5.68h-2.24c-.47612844.00389449-.89754752.30892163-1.05.76l-2.59 7.78c-.11416832.33792844-.05835149.71017545.14990925.99975705.20826074.28958159.54339825.46094725.90009075.46024295h5.89v43c0 .017.009.032.01.049-2.2171511.1668846-4.34525502.9423449-6.15 2.241-.54735097.396519-.86803738 1.0341629-.86 1.71 0 .5522847.44771525 1 1 1h10.56c-.3128781-.5053116-.5013757-1.0776587-.55-1.67-.0828573-.9763359.1985498-1.9487934.79-2.73-.9110428-.2948445-1.85344562-.4821168-2.808-.558 0-.015.008-.027.008-.042v-43h3v5c0 .5522847.4477153 1 1 1s1-.4477153 1-1z"/></g></g></svg>