<svg id="Layer_1" enable-background="new 0 0 511.421 511.421" height="512" viewBox="0 0 511.421 511.421" width="512" xmlns="http://www.w3.org/2000/svg"><g><path d="m200.951 300.762c-12.387 8.306-28.43 7.598-39.969-1.105-5.435-4.1-8.276-9.005-8.635-9.467l-2.846 68.022-47.105 114.328c-5.903 14.329.926 30.729 15.255 36.633 14.418 5.941 30.767-1.018 36.633-15.255l48.989-118.902c1.247-3.026 1.954-6.246 2.091-9.516l2.989-71.423c-2.104 2.543-4.585 4.796-7.402 6.685z"/><circle cx="257.79" cy="48.812" r="48.812"/><path d="m389.775 241.243c-.845-3.65-2.621-7.134-5.386-10.049l-59.735-62.993-34.886-64.912c-9.292 5.789-20.248 9.146-31.978 9.146-26.311 0-48.754-16.842-57.138-40.308-17.494.164-19.565-.401-24.454.609-9.764-1.105-19.48 4.279-23.437 13.809-4.226 10.176-38.203 91.992-42.274 101.795-2.901 6.987-2.126 14.977 2.104 21.285l50.359 75.103c6.952 10.372 21.039 13.127 31.384 6.205.006-.004.013-.007.019-.012 10.345-6.936 13.179-20.985 6.194-31.402l-43.6-65.024 18.003-43.35-5.644 40.507 41.082 61.269c4.276 6.377 6.259 13.824 5.771 21.361h2.953l31.234 85.159 21.888 128.501c2.604 15.285 17.102 25.551 32.373 22.949 15.277-2.602 25.552-17.096 22.95-32.373l-22.32-131.036c-.287-1.687-.729-3.344-1.318-4.951l-26.343-71.825v-98.193l10.129 18.847c.914 1.7 2.05 3.271 3.378 4.671l56.42 59.497c-3.034 5.106-4.783 11.062-4.783 17.42v228.599c0 5.453 4.421 9.874 9.874 9.874s9.874-4.42 9.874-9.874v-228.599c0-1.997.407-3.9 1.142-5.632 1.643.386 3.319.604 5 .604 5.968 0 11.782-2.406 16.097-7.156 4.02 2.573 6.697 7.067 6.697 12.184v31.234c0 5.453 4.421 9.874 9.874 9.874s9.874-4.421 9.874-9.874v-31.234c-.004-14.325-8.858-26.615-21.377-31.705z"/></g></svg>